<svg version="1.1" xmlns="http://www.w3.org/2000/svg" xmlns:xlink="http://www.w3.org/1999/xlink" viewBox="0 0 172 172"><g fill="none" fill-rule="nonzero" stroke="none" stroke-width="1" stroke-linecap="butt" stroke-linejoin="miter" stroke-miterlimit="10" stroke-dasharray="" stroke-dashoffset="0" font-family="none" font-weight="none" font-size="none" text-anchor="none" style="mix-blend-mode: normal"><path d="M0,172v-172h172v172z" fill="none"></path><g fill="#ffffff"><path d="M70.52,22.36c-14.13438,0 -26.9636,4.4342 -36.32492,11.69734c-9.36132,7.26314 -15.27508,17.43722 -15.27508,28.72266c0,11.31209 6.02325,21.43991 15.42289,28.70922c-0.00499,0.54791 -0.00258,3.10211 -0.57109,6.97406c-0.62575,4.26174 -1.9483,9.3176 -4.18914,12.30539c-0.3905,0.52141 -0.45296,1.21868 -0.16134,1.80119c0.29161,0.58251 0.88726,0.95032 1.53869,0.95014c8.75451,0 15.40361,-3.22849 19.96477,-6.59445c4.78103,18.69019 25.73004,32.39445 50.55523,32.39445c4.81899,0 9.45862,-0.5687 13.8843,-1.53523c3.39774,3.97303 11.9964,11.85523 25.6757,11.85523c0.65143,0.00019 1.24708,-0.36762 1.53869,-0.95014c0.29161,-0.58251 0.22915,-1.27978 -0.16134,-1.80119c-2.24084,-2.98779 -3.56339,-8.04365 -4.18914,-12.30539c-0.56851,-3.87195 -0.56618,-6.42616 -0.57109,-6.97406c9.39964,-7.2693 15.42289,-17.39713 15.42289,-28.70922c0,-16.71988 -12.91119,-30.86147 -30.99023,-37.03711c-0.31182,-10.9176 -6.13869,-20.74038 -15.24484,-27.80555c-9.36132,-7.26314 -22.19054,-11.69734 -36.32492,-11.69734zM70.52,25.8c13.41314,0 25.52344,4.2314 34.21523,10.97508c8.68404,6.73766 13.93541,15.90139 13.94477,25.97805v0.00336c-0.03446,0.17936 -0.04013,0.36307 -0.0168,0.54422c-0.17807,9.88128 -5.38653,18.8572 -13.92797,25.48422c-8.6918,6.74368 -20.8021,10.97508 -34.21523,10.97508c-4.90968,0 -9.6405,-0.57097 -14.0993,-1.61922c-0.64753,-0.15297 -1.32521,0.08121 -1.74015,0.60133c-2.27706,2.84886 -9.56421,9.72725 -20.78445,10.89445c1.66515,-3.42232 2.77635,-7.22816 3.28211,-10.67274c0.66426,-4.52402 0.6618,-8.17672 0.6618,-8.17672c-0.00107,-0.54493 -0.26029,-1.05713 -0.69875,-1.3807c-9.18422,-6.79245 -14.78125,-16.22361 -14.78125,-26.62641c0,-10.08728 5.25297,-19.26124 13.94477,-26.00492c8.6918,-6.74368 20.8021,-10.97508 34.21523,-10.97508zM70.52,30.96c-11.78994,0 -22.4933,3.51556 -30.29148,9.245c-7.79819,5.72944 -12.70852,13.72207 -12.70852,22.575c0,5.56983 1.94963,10.81192 5.33133,15.34562c0.28479,0.38034 0.82399,0.4578 1.20434,0.17301c0.38034,-0.28479 0.4578,-0.82399 0.17301,-1.20434c-3.19214,-4.27958 -4.98867,-9.14445 -4.98867,-14.3143c0,-8.21807 4.54389,-15.70476 12.00641,-21.18758c7.46251,-5.48281 17.82634,-8.91242 29.27359,-8.91242c9.1898,0 17.6772,2.21022 24.53016,5.91922c0.27082,0.15564 0.60473,0.15222 0.8723,-0.00893c0.26757,-0.16115 0.42674,-0.45471 0.41581,-0.76687c-0.01093,-0.31217 -0.19024,-0.59387 -0.46843,-0.73591c-7.12377,-3.85557 -15.88453,-6.1275 -25.34984,-6.1275zM98.89328,39.04938c-0.38243,-0.00293 -0.72086,0.24702 -0.83055,0.6134c-0.10968,0.36638 0.03574,0.76117 0.35687,0.96887c0.57428,0.38508 1.1333,0.78657 1.68305,1.1993c0.38034,0.28572 0.92029,0.20901 1.20601,-0.17133c0.28572,-0.38034 0.20901,-0.92029 -0.17133,-1.20601c-0.56825,-0.42663 -1.15131,-0.84693 -1.75695,-1.25305c-0.14335,-0.09848 -0.31319,-0.15119 -0.48711,-0.15117zM104.03648,43.19484c-0.35072,0.0053 -0.66308,0.22304 -0.78939,0.55026c-0.12631,0.32723 -0.04126,0.69837 0.21494,0.93794c1.24175,1.19812 2.36446,2.4623 3.3493,3.78265c0.28479,0.38034 0.82399,0.4578 1.20434,0.17301c0.38034,-0.28479 0.4578,-0.82399 0.17301,-1.20434c-1.04476,-1.40069 -2.22685,-2.72954 -3.5307,-3.98758c-0.16454,-0.16461 -0.38877,-0.25552 -0.62148,-0.25195zM47.3,49.88c-0.31015,-0.00439 -0.59863,0.15856 -0.75498,0.42645c-0.15635,0.26789 -0.15635,0.59921 0,0.8671c0.15635,0.26789 0.44484,0.43084 0.75498,0.42645h25.8c0.31015,0.00439 0.59863,-0.15856 0.75498,-0.42645c0.15635,-0.26789 0.15635,-0.59921 0,-0.8671c-0.15635,-0.26789 -0.44484,-0.43084 -0.75498,-0.42645zM78.26,49.88c-0.31015,-0.00439 -0.59863,0.15856 -0.75498,0.42645c-0.15635,0.26789 -0.15635,0.59921 0,0.8671c0.15635,0.26789 0.44484,0.43084 0.75498,0.42645h15.48c0.31015,0.00439 0.59863,-0.15856 0.75498,-0.42645c0.15635,-0.26789 0.15635,-0.59921 0,-0.8671c-0.15635,-0.26789 -0.44484,-0.43084 -0.75498,-0.42645zM110.93664,53.17219c-0.28753,-0.00052 -0.5563,0.14267 -0.71626,0.3816c-0.15996,0.23893 -0.18995,0.54198 -0.07992,0.80762c1.07508,2.67856 1.65953,5.49924 1.65953,8.41859c0,8.21807 -4.54389,15.70476 -12.00641,21.18758c-7.46251,5.48281 -17.82634,8.91242 -29.27359,8.91242c-1.43062,0 -2.8444,-0.0529 -4.23617,-0.15789c-0.47388,-0.03499 -0.88646,0.32067 -0.9217,0.79453c-0.03524,0.47386 0.3202,0.88663 0.79404,0.92211c1.43591,0.10831 2.89109,0.16125 4.36383,0.16125c11.78994,0 22.4933,-3.51556 30.29148,-9.245c7.79819,-5.72944 12.70852,-13.72207 12.70852,-22.575c0,-3.14881 -0.62987,-6.19016 -1.78047,-9.05688c-0.1279,-0.33205 -0.44706,-0.55106 -0.80289,-0.55094zM43.86,58.48c-0.31015,-0.00439 -0.59863,0.15856 -0.75498,0.42645c-0.15635,0.26789 -0.15635,0.59921 0,0.8671c0.15635,0.26789 0.44484,0.43084 0.75498,0.42645h10.32c0.31015,0.00439 0.59863,-0.15856 0.75498,-0.42645c0.15635,-0.26789 0.15635,-0.59921 0,-0.8671c-0.15635,-0.26789 -0.44484,-0.43084 -0.75498,-0.42645zM61.06,58.48c-0.31015,-0.00439 -0.59863,0.15856 -0.75498,0.42645c-0.15635,0.26789 -0.15635,0.59921 0,0.8671c0.15635,0.26789 0.44484,0.43084 0.75498,0.42645h36.12c0.31015,0.00439 0.59863,-0.15856 0.75498,-0.42645c0.15635,-0.26789 0.15635,-0.59921 0,-0.8671c-0.15635,-0.26789 -0.44484,-0.43084 -0.75498,-0.42645zM121.9957,65.47422c16.46824,5.97578 27.6443,18.78088 27.6443,33.42578c0,10.4028 -5.59703,19.83396 -14.78125,26.62641c-0.43846,0.32358 -0.69768,0.83577 -0.69875,1.3807c0,0 -0.00241,3.6527 0.6618,8.17672c0.50576,3.44457 1.61696,7.25041 3.28211,10.67274c-11.22024,-1.1672 -18.50739,-8.0456 -20.78445,-10.89445c-0.41494,-0.52012 -1.09262,-0.7543 -1.74015,-0.60133c-4.4588,1.04824 -9.18962,1.61922 -14.0993,1.61922c-24.30887,0 -44.12413,-13.87475 -47.58891,-31.41687c1.10612,-1.02163 2.05991,-1.99773 2.74461,-2.79836c4.42568,0.96653 9.0653,1.53523 13.8843,1.53523c14.13438,0 26.9636,-4.4342 36.32492,-11.69734c8.60938,-6.67974 14.29169,-15.82437 15.15078,-26.02844zM43.86,67.08c-0.31015,-0.00439 -0.59863,0.15856 -0.75498,0.42645c-0.15635,0.26789 -0.15635,0.59921 0,0.8671c0.15635,0.26789 0.44484,0.43084 0.75498,0.42645h53.32c0.31015,0.00439 0.59863,-0.15856 0.75498,-0.42645c0.15635,-0.26789 0.15635,-0.59921 0,-0.8671c-0.15635,-0.26789 -0.44484,-0.43084 -0.75498,-0.42645zM126.41664,73.14031c-0.39771,-0.00399 -0.74628,0.26523 -0.84293,0.65103c-0.09665,0.38581 0.08383,0.78756 0.43645,0.97154c10.21019,5.52933 16.74984,14.30663 16.74984,24.13711c0,5.16985 -1.79653,10.03472 -4.98867,14.3143c-0.28479,0.38034 -0.20733,0.91954 0.17301,1.20434c0.38034,0.28479 0.91954,0.20733 1.20434,-0.17301c3.3817,-4.5337 5.33133,-9.7758 5.33133,-15.34563c0,-10.5928 -7.03803,-19.90183 -17.65016,-25.64883c-0.1262,-0.07117 -0.26833,-0.1093 -0.4132,-0.11086zM47.3,75.68c-0.31015,-0.00439 -0.59863,0.15856 -0.75498,0.42645c-0.15635,0.26789 -0.15635,0.59921 0,0.8671c0.15635,0.26789 0.44484,0.43084 0.75498,0.42645h24.08c0.31015,0.00439 0.59863,-0.15856 0.75498,-0.42645c0.15635,-0.26789 0.15635,-0.59921 0,-0.8671c-0.15635,-0.26789 -0.44484,-0.43084 -0.75498,-0.42645zM117.82,86c-0.31015,-0.00439 -0.59863,0.15856 -0.75498,0.42645c-0.15635,0.26789 -0.15635,0.59921 0,0.8671c0.15635,0.26789 0.44484,0.43084 0.75498,0.42645h6.88c0.31015,0.00439 0.59863,-0.15856 0.75498,-0.42645c0.15635,-0.26789 0.15635,-0.59921 0,-0.8671c-0.15635,-0.26789 -0.44484,-0.43084 -0.75498,-0.42645zM109.22,94.6c-0.31015,-0.00439 -0.59863,0.15856 -0.75498,0.42645c-0.15635,0.26789 -0.15635,0.59921 0,0.8671c0.15635,0.26789 0.44484,0.43084 0.75498,0.42645h18.92c0.31015,0.00439 0.59863,-0.15856 0.75498,-0.42645c0.15635,-0.26789 0.15635,-0.59921 0,-0.8671c-0.15635,-0.26789 -0.44484,-0.43084 -0.75498,-0.42645zM93.74,103.2c-0.31015,-0.00439 -0.59863,0.15856 -0.75498,0.42645c-0.15635,0.26789 -0.15635,0.59921 0,0.8671c0.15635,0.26789 0.44484,0.43084 0.75498,0.42645h34.4c0.31015,0.00439 0.59863,-0.15856 0.75498,-0.42645c0.15635,-0.26789 0.15635,-0.59921 0,-0.8671c-0.15635,-0.26789 -0.44484,-0.43084 -0.75498,-0.42645zM61.00961,106.62992c-0.28783,-0.00231 -0.55773,0.13951 -0.7191,0.37786c-0.16137,0.23835 -0.19282,0.54161 -0.08379,0.808c5.26218,13.34497 21.81581,22.90422 41.27328,22.90422c1.47274,0 2.92792,-0.05294 4.36383,-0.16125c0.47384,-0.03549 0.82928,-0.44825 0.79404,-0.92211c-0.03524,-0.47386 -0.44782,-0.82951 -0.9217,-0.79453c-1.39177,0.10498 -2.80555,0.15789 -4.23617,0.15789c-18.89165,0 -34.76432,-9.36419 -39.67422,-21.81578c-0.12593,-0.33109 -0.44196,-0.55111 -0.79617,-0.5543zM78.26,111.8c-0.31015,-0.00439 -0.59863,0.15856 -0.75498,0.42645c-0.15635,0.26789 -0.15635,0.59921 0,0.8671c0.15635,0.26789 0.44484,0.43084 0.75498,0.42645h46.44c0.31015,0.00439 0.59863,-0.15856 0.75498,-0.42645c0.15635,-0.26789 0.15635,-0.59921 0,-0.8671c-0.15635,-0.26789 -0.44484,-0.43084 -0.75498,-0.42645z"></path></g></g></svg>