<svg version="1.1" xmlns="http://www.w3.org/2000/svg" xmlns:xlink="http://www.w3.org/1999/xlink" viewBox="0 0 172 172"><g fill="none" fill-rule="nonzero" stroke="none" stroke-width="1" stroke-linecap="butt" stroke-linejoin="miter" stroke-miterlimit="10" stroke-dasharray="" stroke-dashoffset="0" font-family="none" font-weight="none" font-size="none" text-anchor="none" style="mix-blend-mode: normal"><path d="M0,172v-172h172v172z" fill="none"></path><g fill="#ffffff"><path d="M79.12,22.36c-2.82935,0 -5.16,2.33065 -5.16,5.16v3.44h-18.46312c-3.01809,0 -5.82411,1.58723 -7.37719,4.1757l-2.6539,4.4243h-5.90578c-3.77941,0 -6.88,3.10059 -6.88,6.88c0,3.77941 3.10059,6.88 6.88,6.88h1.84766l6.14766,79.90945c0.41158,5.36088 4.91248,9.53055 10.28976,9.53055h56.30985c5.37729,0 9.87818,-4.16967 10.28976,-9.53055l6.14766,-79.90945h1.84766c3.77941,0 6.88,-3.10059 6.88,-6.88c0,-3.77941 -3.10059,-6.88 -6.88,-6.88h-5.90578l-2.6539,-4.4243c-1.55309,-2.58847 -4.3591,-4.1757 -7.37719,-4.1757h-18.46313v-3.44c0,-2.82935 -2.33065,-5.16 -5.16,-5.16zM79.12,25.8h13.76c0.97185,0 1.72,0.74815 1.72,1.72v3.44h-17.2v-3.44c0,-0.97185 0.74815,-1.72 1.72,-1.72zM55.49688,34.4h19.89422c0.18575,0.0307 0.37527,0.0307 0.56102,0h20.07898c0.18575,0.0307 0.37527,0.0307 0.56102,0h19.91102c1.81511,0 3.49026,0.94936 4.4243,2.50609l2.62703,4.37391h-5.73445c-0.31015,-0.00439 -0.59863,0.15856 -0.75498,0.42645c-0.15635,0.26789 -0.15635,0.59921 0,0.8671c0.15635,0.26789 0.44484,0.43084 0.75498,0.42645h8.6h6.02c1.92067,0 3.44,1.51933 3.44,3.44c0,1.92067 -1.51933,3.44 -3.44,3.44h-92.88c-1.92067,0 -3.44,-1.51933 -3.44,-3.44c0,-1.92067 1.51933,-3.44 3.44,-3.44h6.88h59.34c0.31015,0.00439 0.59863,-0.15856 0.75498,-0.42645c0.15635,-0.26789 0.15635,-0.59921 0,-0.8671c-0.15635,-0.26789 -0.44484,-0.43084 -0.75498,-0.42645h-57.33445l2.62703,-4.37391c0.93404,-1.55673 2.60919,-2.50609 4.4243,-2.50609zM110.94,41.28c-0.31015,-0.00439 -0.59863,0.15856 -0.75498,0.42645c-0.15635,0.26789 -0.15635,0.59921 0,0.8671c0.15635,0.26789 0.44484,0.43084 0.75498,0.42645h3.44c0.31015,0.00439 0.59863,-0.15856 0.75498,-0.42645c0.15635,-0.26789 0.15635,-0.59921 0,-0.8671c-0.15635,-0.26789 -0.44484,-0.43084 -0.75498,-0.42645zM44.85438,53.32h82.29125l-6.13086,79.64742c-0.27642,3.60032 -3.24841,6.35258 -6.85984,6.35258h-56.30985c-3.61143,0 -6.58343,-2.75226 -6.85984,-6.35258zM65.36,60.2c-2.83988,0 -5.16,2.32012 -5.16,5.16v60.2c0,2.83988 2.32012,5.16 5.16,5.16c2.83988,0 5.16,-2.32012 5.16,-5.16v-60.2c0,-2.83988 -2.32012,-5.16 -5.16,-5.16zM86,60.2c-2.83988,0 -5.16,2.32012 -5.16,5.16v60.2c0,2.83988 2.32012,5.16 5.16,5.16c2.83988,0 5.16,-2.32012 5.16,-5.16v-6.02c0.00439,-0.31015 -0.15856,-0.59863 -0.42645,-0.75498c-0.26789,-0.15635 -0.59921,-0.15635 -0.8671,0c-0.26789,0.15635 -0.43084,0.44484 -0.42645,0.75498v6.02c0,1.91076 -1.52924,3.44 -3.44,3.44c-1.91076,0 -3.44,-1.52924 -3.44,-3.44v-60.2c0,-1.91076 1.52924,-3.44 3.44,-3.44c1.91076,0 3.44,1.52924 3.44,3.44v43.86c-0.00439,0.31015 0.15856,0.59863 0.42645,0.75498c0.26789,0.15635 0.59921,0.15635 0.8671,0c0.26789,-0.15635 0.43084,-0.44484 0.42645,-0.75498v-43.86c0,-2.83988 -2.32012,-5.16 -5.16,-5.16zM106.64,60.2c-2.83988,0 -5.16,2.32012 -5.16,5.16v2.58c-0.00439,0.31015 0.15856,0.59863 0.42645,0.75498c0.26789,0.15635 0.59921,0.15635 0.8671,0c0.26789,-0.15635 0.43084,-0.44484 0.42645,-0.75498v-2.58c0,-1.91076 1.52924,-3.44 3.44,-3.44c1.91076,0 3.44,1.52924 3.44,3.44v60.2c0,1.91076 -1.52924,3.44 -3.44,3.44c-1.91076,0 -3.44,-1.52924 -3.44,-3.44v-43.86c0.00439,-0.31015 -0.15856,-0.59863 -0.42645,-0.75498c-0.26789,-0.15635 -0.59921,-0.15635 -0.8671,0c-0.26789,0.15635 -0.43084,0.44484 -0.42645,0.75498v43.86c0,2.83988 2.32012,5.16 5.16,5.16c2.83988,0 5.16,-2.32012 5.16,-5.16v-60.2c0,-2.83988 -2.32012,-5.16 -5.16,-5.16zM65.36,61.92c1.91076,0 3.44,1.52924 3.44,3.44v60.2c0,1.91076 -1.52924,3.44 -3.44,3.44c-1.91076,0 -3.44,-1.52924 -3.44,-3.44v-60.2c0,-1.91076 1.52924,-3.44 3.44,-3.44zM102.32656,72.22656c-0.22809,0.00356 -0.44542,0.09758 -0.60418,0.26138c-0.15876,0.1638 -0.24595,0.38397 -0.24238,0.61205v3.44c-0.00439,0.31015 0.15856,0.59863 0.42645,0.75498c0.26789,0.15635 0.59921,0.15635 0.8671,0c0.26789,-0.15635 0.43084,-0.44484 0.42645,-0.75498v-3.44c0.00364,-0.23275 -0.08721,-0.45703 -0.25181,-0.62163c-0.1646,-0.1646 -0.38888,-0.25545 -0.62163,-0.25181z"></path></g></g></svg>