<svg version="1.1" xmlns="http://www.w3.org/2000/svg" xmlns:xlink="http://www.w3.org/1999/xlink" viewBox="0 0 172 172"><g fill="none" fill-rule="nonzero" stroke="none" stroke-width="1" stroke-linecap="butt" stroke-linejoin="miter" stroke-miterlimit="10" stroke-dasharray="" stroke-dashoffset="0" font-family="none" font-weight="none" font-size="none" text-anchor="none" style="mix-blend-mode: normal"><path d="M0,172v-172h172v172z" fill="none"></path><g fill="#ffffff"><path d="M85.96305,24.11695c-34.17712,0 -61.92,27.7429 -61.92,61.92c0,34.1771 27.74288,61.92 61.92,61.92c34.17712,0 61.92,-27.7429 61.92,-61.92c0,-34.1771 -27.74288,-61.92 -61.92,-61.92zM85.96305,27.55695c32.31801,0 58.48,26.16202 58.48,58.48c0,32.31799 -26.16199,58.48 -58.48,58.48c-32.31801,0 -58.48,-26.16201 -58.48,-58.48c0,-32.31798 26.16199,-58.48 58.48,-58.48zM85.96305,32.71695c-29.43816,0 -53.32,23.88184 -53.32,53.32c0,29.43816 23.88184,53.32 53.32,53.32c29.43816,0 53.32,-23.88184 53.32,-53.32c0,-15.64446 -6.74399,-29.72707 -17.48219,-39.47937c-0.22574,-0.21712 -0.55166,-0.29437 -0.85084,-0.20165c-0.29917,0.09272 -0.52429,0.34074 -0.58768,0.64747c-0.06339,0.30673 0.04498,0.62367 0.28289,0.82738c10.39372,9.43945 16.91781,23.05575 16.91781,38.20617c0,17.38099 -8.59096,32.73776 -21.75195,42.08625c-0.19998,-1.14358 -0.44432,-2.58463 -0.65508,-3.5475c-0.06291,-0.28688 -0.19822,-0.55288 -0.39305,-0.77265c-1.20632,-4.12721 -4.12616,-7.57932 -8.20359,-9.16773c-0.02995,-0.01092 -0.06019,-0.021 -0.0907,-0.03024l-9.55742,-3.13094c-0.02307,-0.00826 -1.75994,-0.83876 -2.10297,-2.68078c2.96105,-1.66186 5.99064,-3.92932 8.12297,-7.17898h-0.00336c0.8694,-1.32244 1.99211,-3.5431 1.99211,-6.17117v-0.03023c0.89373,-0.7051 1.58978,-1.60744 1.92492,-2.66734v-0.00672c0.28342,-0.88373 0.57487,-2.40782 0.89695,-4.08164c0.1613,-0.83822 0.31235,-1.65932 0.42328,-2.31125c0.05547,-0.32596 0.10106,-0.6066 0.13438,-0.83984c0.03332,-0.23325 0.07443,-0.24645 0.05711,-0.71555c-0.04051,-1.13423 -0.45132,-2.05845 -0.92383,-2.68078c-0.00223,-0.00337 -0.00447,-0.00673 -0.00672,-0.01008c-0.0281,-0.03629 -0.44186,-0.58382 -0.78609,-1.03805v-7.10172c0,-11.3786 -9.2614,-20.64 -20.64,-20.64c-11.3786,0 -20.64,9.2614 -20.64,20.64v7.23609c-0.1134,0.12907 -0.24573,0.27947 -0.3393,0.38633c-0.10612,0.12121 -0.19702,0.2269 -0.26539,0.3057c-0.06837,0.07881 -0.04718,0.04171 -0.17469,0.20492c-0.00453,0.00669 -0.00901,0.01341 -0.01344,0.02015c-0.46839,0.61781 -0.8825,1.54142 -0.92383,2.67742c-0.0173,0.4691 0.02381,0.4823 0.05711,0.71555c0.03332,0.23325 0.07891,0.51724 0.13437,0.8432c0.11094,0.65193 0.26199,1.46967 0.42328,2.30789c0.32177,1.67222 0.61044,3.19753 0.89359,4.08164l0.00336,0.00336c0.00045,0.00139 -0.00044,0.00534 0,0.00672c0.33527,1.0587 1.03131,1.9592 1.92492,2.66398v0.03023c0,2.62808 1.12279,4.84874 1.99211,6.17117h-0.00336c2.13446,3.25036 5.1642,5.5203 8.12633,7.18234c-0.33997,1.89039 -2.07778,2.66687 -2.08953,2.6707c-0.00004,0.00001 -0.00672,0.00336 -0.00672,0.00336l-9.57086,3.1343c-0.02941,0.0104 -0.05854,0.02161 -0.08734,0.0336c-4.07811,1.59052 -7.00157,5.04182 -8.20695,9.17109c-0.19261,0.21823 -0.32669,0.48177 -0.38969,0.76594c-0.21357,0.9743 -0.46386,2.45789 -0.6618,3.59117c-13.19784,-9.34401 -21.81914,-24.72024 -21.81914,-42.12992c0,-28.50864 23.09136,-51.6 51.6,-51.6c6.24487,0 12.22586,1.10766 17.76437,3.13766c0.29268,0.12631 0.63122,0.08038 0.87967,-0.11934c0.24845,-0.19972 0.36606,-0.52048 0.3056,-0.83347c-0.06046,-0.31299 -0.28906,-0.56687 -0.59402,-0.65969c-5.72405,-2.098 -11.9069,-3.24516 -18.35562,-3.24516zM109.14945,38.11547c-0.39716,0.01123 -0.73494,0.29305 -0.81715,0.68177c-0.08221,0.38872 0.11253,0.78317 0.47114,0.95424c1.15197,0.57006 2.27934,1.18258 3.38289,1.83422c0.2649,0.17944 0.6075,0.19701 0.88936,0.0456c0.28186,-0.1514 0.45638,-0.44675 0.45304,-0.76668c-0.00334,-0.31993 -0.184,-0.61157 -0.46896,-0.75705c-1.13933,-0.67276 -2.30308,-1.30547 -3.49375,-1.89469c-0.12843,-0.06704 -0.27172,-0.10055 -0.41656,-0.09742zM116.07648,42.19711c-0.38251,-0.01134 -0.72651,0.23142 -0.84401,0.59561c-0.11751,0.36419 0.01974,0.76222 0.33675,0.97658c0.57223,0.40124 1.13911,0.81565 1.69312,1.23961c0.37756,0.2885 0.91751,0.21631 1.20602,-0.16125c0.2885,-0.37756 0.21631,-0.91751 -0.16125,-1.20602c-0.57431,-0.43949 -1.15974,-0.86588 -1.75023,-1.27992c-0.13991,-0.10197 -0.30734,-0.15934 -0.48039,-0.16461zM86,56.76c9.5194,0 17.2,7.6806 17.2,17.2v7.68289c0.00025,0.37484 0.12293,0.73934 0.34937,1.03805c0.50428,0.66497 1.01164,1.33732 1.14891,1.51508c0.08303,0.11007 0.17942,0.3016 0.20828,0.63492c-0.00236,0.05633 -0.00373,0.12016 -0.01344,0.18813c-0.02599,0.18199 -0.06862,0.44163 -0.12094,0.74914c-0.10466,0.61502 -0.25229,1.41856 -0.40984,2.23735c-0.3151,1.63756 -0.74822,3.56032 -0.78945,3.68859c-0.00113,0.00336 -0.00225,0.00671 -0.00336,0.01008c-0.24132,0.76689 -0.70044,1.19176 -0.91375,1.26313c-0.70252,0.23437 -1.17617,0.89208 -1.17578,1.63266v0.8432c0,1.55496 -0.83514,3.38684 -1.42438,4.2832c-1.95965,2.98651 -5.04207,5.27937 -7.94828,6.73891c-0.5814,0.29238 -0.94802,0.88782 -0.94734,1.53859v0.35609c0,4.58667 4.55531,6.33914 4.55531,6.33914c0.02332,0.00947 0.04684,0.01843 0.07055,0.02688l9.52383,3.1175c3.29863,1.28503 5.71442,4.08773 6.47688,7.46789c0.008,0.03273 0.01696,0.06522 0.02687,0.09742c0.24166,1.13399 0.87008,4.74344 0.87008,4.74344l0.0907,-0.0168c-7.81293,4.75866 -16.98962,7.50148 -26.81117,7.50148c-9.83291,0 -19.01924,-2.74945 -26.83805,-7.51828l0.19148,0.03359c0,0 0.61893,-3.56337 0.86336,-4.71656c0.01274,-0.041 0.02395,-0.08246 0.03359,-0.1243c0.76153,-3.37607 3.17319,-6.17223 6.4668,-7.46117l9.53391,-3.12422c0.01576,-0.00537 0.03144,-0.01097 0.04703,-0.0168c-0.00003,-0.00009 4.57883,-1.72673 4.57883,-6.34922v-0.35609c0.00068,-0.65077 -0.36595,-1.24622 -0.94734,-1.53859c-2.90598,-1.45942 -5.98653,-3.75156 -7.94828,-6.73891c-0.58924,-0.89636 -1.42437,-2.72824 -1.42437,-4.2832v-0.8432c0.00039,-0.74058 -0.47327,-1.39828 -1.17578,-1.63266c-0.21331,-0.07136 -0.67261,-0.49798 -0.91375,-1.26313c-0.00111,-0.00336 -0.00223,-0.00672 -0.00336,-0.01008c-0.04123,-0.12828 -0.47435,-2.04767 -0.78945,-3.68523c-0.15755,-0.81878 -0.30519,-1.62233 -0.40984,-2.23734c-0.05232,-0.30751 -0.09495,-0.57051 -0.12094,-0.7525c-0.00953,-0.06676 -0.01103,-0.12917 -0.01344,-0.18477c0.02925,-0.33819 0.13123,-0.53086 0.215,-0.64164v-0.00336c-0.00344,0.00533 -0.00052,0.00395 0.04367,-0.04703c0.06225,-0.07174 0.15117,-0.17332 0.25531,-0.29227c0.20829,-0.23789 0.48231,-0.54874 0.76258,-0.86672c0.27735,-0.31451 0.43027,-0.7195 0.43,-1.13883v-7.88445c0,-9.5194 7.6806,-17.2 17.2,-17.2z"></path></g></g></svg>