<svg version="1.1" xmlns="http://www.w3.org/2000/svg" xmlns:xlink="http://www.w3.org/1999/xlink" viewBox="0 0 226 226"><g fill="none" fill-rule="nonzero" stroke="none" stroke-width="1" stroke-linecap="butt" stroke-linejoin="miter" stroke-miterlimit="10" stroke-dasharray="" stroke-dashoffset="0" font-family="none" font-weight="none" font-size="none" text-anchor="none" style="mix-blend-mode: normal"><path d="M0,226v-226h226v226z" fill="none"></path><g fill="#ffffff"><path d="M38.41559,41.97773c-1.36052,0.00678 -2.65395,0.57927 -3.54891,1.57141c-0.86106,0.95372 -1.26528,2.17755 -1.14324,3.34145l0.00441,2.64844c0.16272,1.39668 0.98801,3.73871 4.69215,3.73871h8.43969c0.95485,0.11823 8.07447,1.48984 9.48582,16.68074l1.52285,10.7659c0.00067,0.00477 0.00372,0.00848 0.00441,0.01324l8.87227,64.68809c0.15142,1.12548 1.11697,1.95543 2.23793,1.95543c0.04068,0 0.08291,0.00011 0.12359,-0.00441l2.74996,-0.15008c-3.81145,3.09301 -7.77482,7.57945 -7.79523,13.04356c-0.01356,3.83522 -0.01141,5.90676 0.00441,6.15762c0.0791,1.19102 1.06683,2.10992 2.25559,2.10992h0.01766l12.84051,-0.10152l0.37961,4.20219c-2.58353,1.83472 -4.12273,4.69192 -4.12273,7.77316c0,5.36298 4.59278,9.72859 10.24504,9.72859c5.65,0 10.24945,-4.36109 10.24945,-9.72859c0,-1.60637 -0.43822,-3.16578 -1.22711,-4.56855c0.81308,-3.27244 0.78685,-6.19946 0.73273,-7.53922l44.26422,-0.35313l0.3752,4.10508c-2.67866,1.82862 -4.27723,4.74461 -4.27723,7.88793c0,5.36298 4.59504,9.72859 10.24504,9.72859c5.65226,0 10.25161,-4.36335 10.25387,-9.72859c0,-1.80574 -0.5263,-3.56822 -1.51844,-5.09824c-0.0243,-0.03742 -0.06051,-0.05921 -0.08828,-0.09269c0.78455,-2.47331 1.04959,-5.03196 1.10352,-6.93008l4.50676,-0.03531c1.24978,-0.0113 2.25138,-1.03014 2.24234,-2.27766c-0.0113,-1.243 -1.01926,-2.24234 -2.26,-2.24234h-0.02207l-91.68891,0.73273c0,-0.86106 0.00205,-2.05791 0.00883,-3.71223c0.0226,-6.2037 8.77999,-11.86369 12.15191,-13.52027c0.01762,-0.00865 0.02685,-0.02627 0.04414,-0.03531l85.12078,-4.68773c1.02152,-0.05424 1.87541,-0.78651 2.08785,-1.78769l12.43441,-58.90566c0.14238,-0.66444 -0.02535,-1.35823 -0.45023,-1.88481c-0.42714,-0.52884 -1.06771,-0.84083 -1.74797,-0.84309l-85.74758,-0.35312l-0.03531,-7.20816c0.37516,-9.04904 -1.60351,-15.90083 -5.88395,-20.36207c-4.72566,-4.92228 -10.52754,-4.95473 -10.52754,-4.95699l-26.48437,-2.09227v-0.54293c0,-0.62376 -0.50624,-1.13 -1.13,-1.13zM38.42,44.23773h8.86344v6.69172c-0.03671,0.02404 -0.05855,0.06625 -0.09711,0.08828h-8.76633c-1.97298,0 -2.33938,-0.83595 -2.43656,-1.61113l-0.00441,-2.62637c-0.06328,-0.63506 0.13786,-1.24021 0.565,-1.71707c0.47008,-0.51754 1.15504,-0.82317 1.87598,-0.82543zM49.54344,48.18832l26.3034,2.07019c0.04068,0 4.1085,0.09725 7.44652,3.57539c3.39226,3.5369 4.94912,9.27038 4.62594,17.14422l0.03531,7.27438l-25.88406,-0.10594l-1.23594,-8.71336c-1.33237,-14.33822 -7.63479,-18.73215 -11.29117,-20.08398zM62.69734,82.6798l27.51727,0.11477h0.00883c0.01829,0 0.03473,-0.00839 0.05297,-0.00883l85.15168,0.34871l-2.11875,10.04199l-88.74914,0.78129c-0.6215,0.00678 -1.12128,0.51948 -1.11676,1.14324c0.00452,0.61924 0.51076,1.11676 1.13,1.11676h0.00883l88.24594,-0.77687l-1.82742,8.66039l-105.20918,1.13883zM77.7802,93.87828l-9.04,0.07945c-0.6215,0.00678 -1.12354,0.51948 -1.11676,1.14324c0.00678,0.61924 0.51076,1.11676 1.13,1.11676h0.00883l9.04,-0.07945c0.6215,-0.00678 1.12795,-0.51948 1.12117,-1.14324c-0.00678,-0.61924 -0.51076,-1.11676 -1.13,-1.11676zM170.52406,106.36566l-1.88039,8.90316l-101.1659,2.26441l-1.37719,-10.03758zM168.16695,117.54207l-4.24191,20.0884l-92.98664,5.1159l-1.49637,-10.89391l71.15469,-1.70824c0.62376,-0.01582 1.11934,-0.5394 1.10352,-1.1609c-0.01582,-0.62376 -0.56662,-1.1104 -1.15648,-1.0991l-71.4107,1.71707l-1.34629,-9.81687zM162.22562,127.36336l-14.61496,0.35313c-0.62376,0.01582 -1.11934,0.53498 -1.10352,1.15648c0.01582,0.61472 0.51754,1.10352 1.13,1.10352h0.02648l14.61496,-0.35312c0.62376,-0.01582 1.11934,-0.53498 1.10352,-1.15648c-0.01582,-0.62376 -0.54402,-1.06058 -1.15648,-1.10352zM153.53434,167.84031c-0.08623,3.09545 -0.65275,8.14382 -3.51359,10.52754c-3.01032,2.51086 -5.59622,2.91717 -6.85504,2.93977l-1.21828,-13.37461zM81.43504,168.52891h11.77672c0.02709,1.47328 -0.05635,4.28619 -0.74156,6.95656c-0.05302,0.12079 -0.08433,0.24399 -0.0927,0.37519c-0.5251,1.87044 -1.35683,3.63582 -2.71465,4.76719c-3.01032,2.51086 -5.60063,2.91717 -6.85945,2.93977zM86.83344,170.81539c-1.85998,0 -3.37234,1.51236 -3.37234,3.37234c0,1.85998 1.51236,3.37234 3.37234,3.37234c1.85998,0 3.36793,-1.51236 3.36793,-3.37234c0,-1.85998 -1.50795,-3.37234 -3.36793,-3.37234zM147.85344,170.81539c-1.85998,0 -3.37234,1.51236 -3.37234,3.37234c0,1.85998 1.51236,3.37234 3.37234,3.37234c1.85998,0 3.36793,-1.51236 3.36793,-3.37234c0,-1.85998 -1.50795,-3.37234 -3.36793,-3.37234zM86.83344,173.05773c0.62376,0 1.13,0.50624 1.13,1.13c0,0.62376 -0.50624,1.13 -1.13,1.13c-0.62376,0 -1.13,-0.50624 -1.13,-1.13c0,-0.62376 0.50624,-1.13 1.13,-1.13zM147.85344,173.05773c0.62376,0 1.13,0.50624 1.13,1.13c0,0.62376 -0.50624,1.13 -1.13,1.13c-0.62376,0 -1.13,-0.50624 -1.13,-1.13c0,-0.62376 0.50624,-1.13 1.13,-1.13zM140.31863,174.73066l0.70184,7.72902c0.04294,0.49268 0.41015,0.9004 0.89605,0.99758c0.05198,0.0113 0.4437,0.08387 1.0991,0.08387c1.62042,0 4.84618,-0.45278 8.4441,-3.4518c0.86972,-0.72464 1.55718,-1.6366 2.11875,-2.63961c0.30251,0.79772 0.4723,1.63728 0.4723,2.49395c0,4.12902 -3.59107,7.48625 -8.00711,7.48625c-4.41378,0 -8.0027,-3.35949 -8.0027,-7.48625c0,-1.96808 0.83685,-3.8273 2.27766,-5.21301zM79.80625,175.34422l0.85191,9.37547c0.04294,0.49268 0.41015,0.9004 0.89606,0.99758c0.05198,0.0113 0.4437,0.08387 1.0991,0.08387c1.62042,0 4.84618,-0.45278 8.4441,-3.4518c1.04918,-0.87416 1.83924,-2.01572 2.4498,-3.27082c0.08533,0.43992 0.14125,0.88156 0.14125,1.33305c0,4.12902 -3.58891,7.48625 -8.0027,7.48625c-4.41604,0 -8.00711,-3.35949 -8.00711,-7.48625c0,-1.90065 0.77595,-3.69935 2.12758,-5.06734z"></path></g></g></svg>